<svg xmlns="http://www.w3.org/2000/svg" version="1.1" xmlns:xlink="http://www.w3.org/1999/xlink" xmlns:svgjs="http://svgjs.dev/svgjs" width="1500" height="935" viewBox="0 0 1500 935"><g transform="matrix(1,0,0,1,-0.9090909090909918,0.3785425101214628)"><svg viewBox="0 0 396 247" data-background-color="#ffffff" preserveAspectRatio="xMidYMid meet" height="935" width="1500" xmlns="http://www.w3.org/2000/svg" xmlns:xlink="http://www.w3.org/1999/xlink"><g id="tight-bounds" transform="matrix(1,0,0,1,0.2400000000000091,-0.09999999999999432)"><svg viewBox="0 0 395.52 247.2" height="247.2" width="395.52"><g><svg></svg></g><g><svg viewBox="0 0 395.52 247.2" height="247.2" width="395.52"><g transform="matrix(1,0,0,1,120.33169180327869,47.215199999999996)"><svg viewBox="0 0 154.8566163934426 152.7696" height="152.7696" width="154.8566163934426"><g><svg viewBox="0 0 154.8566163934426 152.7696" height="152.7696" width="154.8566163934426"><g><svg viewBox="0 0 154.8566163934426 152.7696" height="152.7696" width="154.8566163934426"><g><svg viewBox="0 0 154.8566163934426 152.7696" height="152.7696" width="154.8566163934426"><g id="textblocktransform"><svg viewBox="0 0 154.8566163934426 152.7696" height="152.7696" width="154.8566163934426" id="textblock"><g><svg viewBox="0 0 154.8566163934426 152.7696" height="152.7696" width="154.8566163934426"><g transform="matrix(1,0,0,1,0,0)"><svg width="154.8566163934426" viewBox="1.75 -36.6 37.1 36.6" height="152.7696" data-palette-color="#7a26c1"><path d="M1.75 0L11.4 0 11.4-1.95 7.7-1.95Q9.25-5.55 10.5-8.5 11.75-11.45 13.25-15.05L13.25-15.05 27.35-15.05Q28.75-11.75 30.13-8.5 31.5-5.25 32.9-1.95L32.9-1.95 29.25-1.95 29.25 0 38.85 0 38.85-1.95 35-1.95Q31.3-10.7 27.63-19.28 23.95-27.85 20.3-36.6L20.3-36.6Q16.65-27.85 12.95-19.28 9.25-10.7 5.6-1.95L5.6-1.95 1.75-1.95 1.75 0ZM19.8-30.6L19.8-30.6Q19.95-31 20.08-31.3 20.2-31.6 20.3-32.05L20.3-32.05 20.75-30.6 26.5-17 14.1-17Q15.5-20.35 16.98-23.78 18.45-27.2 19.8-30.6Z" opacity="1" transform="matrix(1,0,0,1,0,0)" fill="#7a26c1" class="wordmark-text-0" data-fill-palette-color="primary" id="text-0"></path></svg></g></svg></g></svg></g></svg></g></svg></g></svg></g></svg></g><g><path d="M201.028 0c30.402 0 58.24 10.976 79.769 29.183l-11.148 0c-19.26-14.022-42.974-22.294-68.621-22.295-25.647 0-49.361 8.272-68.621 22.295l-11.147 0c21.528-18.206 49.366-29.183 79.768-29.183zM324.628 123.6c0 13.912-2.299 27.288-6.536 39.767v-79.534c4.238 12.48 6.537 25.855 6.536 39.767zM201.028 247.2c-30.402 0-58.24-10.976-79.768-29.183h11.147c19.26 14.022 42.974 22.294 68.621 22.295 25.647 0 49.361-8.272 68.621-22.295h11.148c-21.528 18.206-49.366 29.183-79.769 29.183z" fill="#7a26c1" stroke="transparent" data-fill-palette-color="tertiary"></path></g></svg></g><defs></defs></svg><rect width="395.52" height="247.2" fill="none" stroke="none" visibility="hidden"></rect></g></svg></g></svg>